<svg width="18" height="20" viewBox="0 0 18 20" fill="none" xmlns="http://www.w3.org/2000/svg">
<path d="M11.25 6.75V3C11.25 2.40326 11.0129 1.83097 10.591 1.40901C10.169 0.987053 9.59674 0.75 9 0.75H3C2.40326 0.75 1.83097 0.987053 1.40901 1.40901C0.987053 1.83097 0.75 2.40326 0.75 3V16.5C0.75 17.0967 0.987053 17.669 1.40901 18.091C1.83097 18.5129 2.40326 18.75 3 18.75H9C9.59674 18.75 10.169 18.5129 10.591 18.091C11.0129 17.669 11.25 17.0967 11.25 16.5V12.75M7.5 6.75L4.5 9.75M4.5 9.75L7.5 12.75M4.5 9.75H17.25" stroke="#1890FF" stroke-width="1.5" stroke-linecap="round" stroke-linejoin="round"/>
</svg>
