<svg xmlns="http://www.w3.org/2000/svg" xmlns:xlink="http://www.w3.org/1999/xlink" width="327" zoomAndPan="magnify" viewBox="0 0 245.25 52.499999" height="70" preserveAspectRatio="xMidYMid meet" version="1.0"><defs><g/><clipPath id="a8a81d2816"><path d="M 0.785156 0 L 243.722656 0 L 243.722656 52.003906 L 0.785156 52.003906 Z M 0.785156 0 " clip-rule="nonzero"/></clipPath><clipPath id="ebe3bde7aa"><path d="M 0.785156 0 L 67 0 L 67 17 L 0.785156 17 Z M 0.785156 0 " clip-rule="nonzero"/></clipPath><clipPath id="cb5d8d6424"><path d="M 10 0 L 20 0 L 20 13 L 10 13 Z M 10 0 " clip-rule="nonzero"/></clipPath><clipPath id="8aa20454ad"><path d="M 55 0 L 66 0 L 66 13 L 55 13 Z M 55 0 " clip-rule="nonzero"/></clipPath><clipPath id="70ac460e4f"><rect x="0" width="67" y="0" height="17"/></clipPath><clipPath id="fef2fb60b3"><path d="M 0.785156 10 L 243.722656 10 L 243.722656 52.003906 L 0.785156 52.003906 Z M 0.785156 10 " clip-rule="nonzero"/></clipPath><clipPath id="0bcdf4c38b"><path d="M 42 19 L 64 19 L 64 42.003906 L 42 42.003906 Z M 42 19 " clip-rule="nonzero"/></clipPath><clipPath id="e3ffffeae2"><path d="M 77 14 L 93 14 L 93 42.003906 L 77 42.003906 Z M 77 14 " clip-rule="nonzero"/></clipPath><clipPath id="b22d7db144"><path d="M 95 19 L 119 19 L 119 42.003906 L 95 42.003906 Z M 95 19 " clip-rule="nonzero"/></clipPath><clipPath id="37da76186e"><path d="M 170 19 L 193 19 L 193 42.003906 L 170 42.003906 Z M 170 19 " clip-rule="nonzero"/></clipPath><clipPath id="5c05c723f2"><path d="M 195 19 L 217 19 L 217 42.003906 L 195 42.003906 Z M 195 19 " clip-rule="nonzero"/></clipPath><clipPath id="d04b510855"><path d="M 221 10 L 243.722656 10 L 243.722656 42 L 221 42 Z M 221 10 " clip-rule="nonzero"/></clipPath><clipPath id="6ce2150fa6"><rect x="0" width="244" y="0" height="43"/></clipPath><clipPath id="fe5c3aa9e1"><rect x="0" width="244" y="0" height="53"/></clipPath></defs><g clip-path="url(#a8a81d2816)"><g transform="matrix(1, 0, 0, 1, 0.000000000000000111, 0)"><g clip-path="url(#fe5c3aa9e1)"><g clip-path="url(#ebe3bde7aa)"><g transform="matrix(1, 0, 0, 1, 0.000000000000000111, 0)"><g clip-path="url(#70ac460e4f)"><g fill="#ffffff" fill-opacity="1"><g transform="translate(-0.54707, 12.313059)"><g><path d="M 1.671875 0 L 1.671875 -12.234375 L 8.859375 -12.234375 L 8.859375 -10.828125 L 3.21875 -10.828125 L 3.21875 -6.953125 L 7.796875 -6.953125 L 7.796875 -5.59375 L 3.21875 -5.59375 L 3.21875 -1.390625 L 8.859375 -1.390625 L 8.859375 0 Z M 1.671875 0 "/></g></g></g><g clip-path="url(#cb5d8d6424)"><g fill="#ffffff" fill-opacity="1"><g transform="translate(9.300833, 12.313059)"><g><path d="M 5.46875 0.203125 C 4.71875 0.203125 4.066406 0.09375 3.515625 -0.125 C 2.972656 -0.34375 2.519531 -0.640625 2.15625 -1.015625 C 1.789062 -1.390625 1.503906 -1.8125 1.296875 -2.28125 C 1.097656 -2.75 0.96875 -3.234375 0.90625 -3.734375 L 2.609375 -3.734375 C 2.679688 -3.242188 2.835938 -2.804688 3.078125 -2.421875 C 3.316406 -2.046875 3.632812 -1.742188 4.03125 -1.515625 C 4.4375 -1.296875 4.914062 -1.1875 5.46875 -1.1875 C 5.957031 -1.1875 6.40625 -1.269531 6.8125 -1.4375 C 7.21875 -1.601562 7.539062 -1.84375 7.78125 -2.15625 C 8.03125 -2.46875 8.15625 -2.832031 8.15625 -3.25 C 8.15625 -3.71875 8.03125 -4.082031 7.78125 -4.34375 C 7.53125 -4.613281 7.203125 -4.828125 6.796875 -4.984375 C 6.390625 -5.140625 5.941406 -5.273438 5.453125 -5.390625 C 4.960938 -5.503906 4.472656 -5.628906 3.984375 -5.765625 C 3.492188 -5.910156 3.046875 -6.109375 2.640625 -6.359375 C 2.234375 -6.617188 1.90625 -6.957031 1.65625 -7.375 C 1.40625 -7.789062 1.28125 -8.335938 1.28125 -9.015625 C 1.28125 -9.609375 1.429688 -10.164062 1.734375 -10.6875 C 2.035156 -11.21875 2.488281 -11.640625 3.09375 -11.953125 C 3.707031 -12.273438 4.484375 -12.4375 5.421875 -12.4375 C 6.078125 -12.4375 6.660156 -12.332031 7.171875 -12.125 C 7.691406 -11.914062 8.125 -11.640625 8.46875 -11.296875 C 8.820312 -10.953125 9.09375 -10.578125 9.28125 -10.171875 C 9.46875 -9.765625 9.570312 -9.363281 9.59375 -8.96875 L 7.96875 -8.96875 C 7.90625 -9.3125 7.769531 -9.640625 7.5625 -9.953125 C 7.351562 -10.265625 7.0625 -10.523438 6.6875 -10.734375 C 6.3125 -10.941406 5.847656 -11.046875 5.296875 -11.046875 C 4.890625 -11.046875 4.5 -10.96875 4.125 -10.8125 C 3.757812 -10.664062 3.457031 -10.445312 3.21875 -10.15625 C 2.988281 -9.863281 2.875 -9.507812 2.875 -9.09375 C 2.875 -8.65625 3 -8.304688 3.25 -8.046875 C 3.507812 -7.785156 3.84375 -7.570312 4.25 -7.40625 C 4.65625 -7.25 5.101562 -7.113281 5.59375 -7 C 6.082031 -6.882812 6.570312 -6.75 7.0625 -6.59375 C 7.550781 -6.445312 8 -6.25 8.40625 -6 C 8.8125 -5.75 9.140625 -5.414062 9.390625 -5 C 9.640625 -4.59375 9.765625 -4.0625 9.765625 -3.40625 C 9.765625 -2.613281 9.570312 -1.945312 9.1875 -1.40625 C 8.8125 -0.863281 8.300781 -0.457031 7.65625 -0.1875 C 7.007812 0.0703125 6.28125 0.203125 5.46875 0.203125 Z M 5.46875 0.203125 "/></g></g></g></g><g fill="#ffffff" fill-opacity="1"><g transform="translate(19.200937, 12.313059)"><g><path d="M 4.171875 0 L 4.171875 -10.828125 L 0.875 -10.828125 L 0.875 -12.234375 L 9.015625 -12.234375 L 9.015625 -10.828125 L 5.71875 -10.828125 L 5.71875 0 Z M 4.171875 0 "/></g></g></g><g fill="#ffffff" fill-opacity="1"><g transform="translate(29.013916, 12.313059)"><g><path d="M 7.578125 -2.859375 L 11.375 -12.234375 L 13.5 -12.234375 L 13.5 0 L 11.96875 0 L 11.96875 -9.8125 L 8.453125 -1.078125 L 6.796875 -1.078125 L 3.203125 -9.8125 L 3.203125 0 L 1.65625 0 L 1.65625 -12.234375 L 3.796875 -12.234375 Z M 7.578125 -2.859375 "/></g></g></g><g fill="#ffffff" fill-opacity="1"><g transform="translate(44.169904, 12.313059)"><g><path d="M 0.140625 0 L 4.421875 -12.234375 L 5.921875 -12.234375 L 1.8125 0 Z M 2.34375 -3.40625 L 2.34375 -4.796875 L 7.953125 -4.796875 L 7.953125 -3.40625 Z M 8.640625 0 L 4.53125 -12.234375 L 5.921875 -12.234375 L 10.1875 0 Z M 8.640625 0 "/></g></g></g><g clip-path="url(#8aa20454ad)"><g fill="#ffffff" fill-opacity="1"><g transform="translate(54.139903, 12.313059)"><g><path d="M 6.28125 0.234375 C 5.375 0.234375 4.59375 0.0507812 3.9375 -0.3125 C 3.289062 -0.675781 2.757812 -1.164062 2.34375 -1.78125 C 1.925781 -2.394531 1.617188 -3.082031 1.421875 -3.84375 C 1.222656 -4.613281 1.125 -5.398438 1.125 -6.203125 C 1.125 -7.035156 1.222656 -7.832031 1.421875 -8.59375 C 1.628906 -9.351562 1.941406 -10.019531 2.359375 -10.59375 C 2.773438 -11.164062 3.304688 -11.617188 3.953125 -11.953125 C 4.609375 -12.285156 5.382812 -12.453125 6.28125 -12.453125 C 7.132812 -12.453125 7.894531 -12.296875 8.5625 -11.984375 C 9.226562 -11.671875 9.773438 -11.238281 10.203125 -10.6875 C 10.640625 -10.132812 10.941406 -9.492188 11.109375 -8.765625 L 9.5625 -8.453125 C 9.425781 -8.953125 9.203125 -9.394531 8.890625 -9.78125 C 8.578125 -10.175781 8.195312 -10.488281 7.75 -10.71875 C 7.3125 -10.945312 6.820312 -11.0625 6.28125 -11.0625 C 5.53125 -11.0625 4.882812 -10.847656 4.34375 -10.421875 C 3.800781 -9.992188 3.390625 -9.414062 3.109375 -8.6875 C 2.828125 -7.957031 2.6875 -7.140625 2.6875 -6.234375 C 2.6875 -5.296875 2.828125 -4.441406 3.109375 -3.671875 C 3.390625 -2.898438 3.800781 -2.289062 4.34375 -1.84375 C 4.882812 -1.394531 5.53125 -1.171875 6.28125 -1.171875 C 6.820312 -1.171875 7.3125 -1.285156 7.75 -1.515625 C 8.195312 -1.742188 8.578125 -2.050781 8.890625 -2.4375 C 9.203125 -2.820312 9.425781 -3.265625 9.5625 -3.765625 L 11.109375 -3.453125 C 10.941406 -2.742188 10.640625 -2.109375 10.203125 -1.546875 C 9.773438 -0.992188 9.226562 -0.554688 8.5625 -0.234375 C 7.894531 0.078125 7.132812 0.234375 6.28125 0.234375 Z M 6.28125 0.234375 "/></g></g></g></g></g></g></g><g clip-path="url(#fef2fb60b3)"><g transform="matrix(1, 0, 0, 1, 0.000000000000000111, 10)"><g clip-path="url(#6ce2150fa6)"><g fill="#ffffff" fill-opacity="1"><g transform="translate(0.976875, 41.730137)"><g><path d="M 0.09375 -30.3125 L 6.9375 -30.3125 L 17.1875 0 L 10.703125 0 Z M 22.046875 -30.3125 L 28.625 -30.3125 L 18.0625 0 L 12.078125 0 Z M 22.046875 -30.3125 "/></g></g></g><g fill="#ffffff" fill-opacity="1"><g transform="translate(29.692733, 41.730137)"><g><path d="M 5.796875 -24.21875 C 4.816406 -24.21875 3.96875 -24.582031 3.25 -25.3125 C 2.53125 -26.050781 2.171875 -26.910156 2.171875 -27.890625 C 2.171875 -28.898438 2.53125 -29.765625 3.25 -30.484375 C 3.96875 -31.210938 4.816406 -31.578125 5.796875 -31.578125 C 6.835938 -31.578125 7.703125 -31.210938 8.390625 -30.484375 C 9.085938 -29.765625 9.4375 -28.898438 9.4375 -27.890625 C 9.4375 -26.910156 9.085938 -26.050781 8.390625 -25.3125 C 7.703125 -24.582031 6.835938 -24.21875 5.796875 -24.21875 Z M 2.765625 0 L 2.765625 -22 L 8.828125 -22 L 8.828125 0 Z M 2.765625 0 "/></g></g></g><g clip-path="url(#0bcdf4c38b)"><g fill="#ffffff" fill-opacity="1"><g transform="translate(41.300348, 41.730137)"><g><path d="M 11.90625 0.515625 C 9.625 0.515625 7.71875 0.132812 6.1875 -0.625 C 4.65625 -1.394531 3.5 -2.398438 2.71875 -3.640625 C 1.945312 -4.878906 1.5625 -6.207031 1.5625 -7.625 L 7.453125 -7.578125 C 7.453125 -6.890625 7.648438 -6.304688 8.046875 -5.828125 C 8.453125 -5.347656 9.007812 -4.992188 9.71875 -4.765625 C 10.425781 -4.535156 11.257812 -4.421875 12.21875 -4.421875 C 13.457031 -4.421875 14.4375 -4.59375 15.15625 -4.9375 C 15.882812 -5.28125 16.25 -5.875 16.25 -6.71875 C 16.25 -7.207031 15.914062 -7.570312 15.25 -7.8125 C 14.582031 -8.0625 13.722656 -8.257812 12.671875 -8.40625 C 11.617188 -8.550781 10.503906 -8.726562 9.328125 -8.9375 C 8.160156 -9.15625 7.050781 -9.492188 6 -9.953125 C 4.945312 -10.421875 4.085938 -11.085938 3.421875 -11.953125 C 2.753906 -12.816406 2.421875 -13.957031 2.421875 -15.375 C 2.421875 -16.707031 2.726562 -17.910156 3.34375 -18.984375 C 3.96875 -20.066406 4.972656 -20.925781 6.359375 -21.5625 C 7.753906 -22.195312 9.5625 -22.515625 11.78125 -22.515625 C 13.65625 -22.515625 15.21875 -22.285156 16.46875 -21.828125 C 17.726562 -21.367188 18.738281 -20.769531 19.5 -20.03125 C 20.269531 -19.289062 20.820312 -18.492188 21.15625 -17.640625 C 21.488281 -16.796875 21.65625 -15.984375 21.65625 -15.203125 L 15.765625 -15.203125 C 15.765625 -15.835938 15.398438 -16.390625 14.671875 -16.859375 C 13.953125 -17.335938 12.972656 -17.578125 11.734375 -17.578125 C 10.554688 -17.578125 9.710938 -17.40625 9.203125 -17.0625 C 8.703125 -16.71875 8.453125 -16.242188 8.453125 -15.640625 C 8.453125 -15.171875 8.703125 -14.804688 9.203125 -14.546875 C 9.710938 -14.285156 10.367188 -14.078125 11.171875 -13.921875 C 11.984375 -13.765625 12.882812 -13.597656 13.875 -13.421875 C 14.875 -13.253906 15.863281 -13.03125 16.84375 -12.75 C 17.832031 -12.476562 18.726562 -12.117188 19.53125 -11.671875 C 20.34375 -11.222656 21 -10.625 21.5 -9.875 C 22.007812 -9.125 22.265625 -8.171875 22.265625 -7.015625 C 22.265625 -5.453125 21.863281 -4.109375 21.0625 -2.984375 C 20.269531 -1.859375 19.101562 -0.992188 17.5625 -0.390625 C 16.019531 0.210938 14.132812 0.515625 11.90625 0.515625 Z M 11.90625 0.515625 "/></g></g></g></g><g fill="#ffffff" fill-opacity="1"><g transform="translate(65.295202, 41.730137)"><g><path d="M 5.796875 -24.21875 C 4.816406 -24.21875 3.96875 -24.582031 3.25 -25.3125 C 2.53125 -26.050781 2.171875 -26.910156 2.171875 -27.890625 C 2.171875 -28.898438 2.53125 -29.765625 3.25 -30.484375 C 3.96875 -31.210938 4.816406 -31.578125 5.796875 -31.578125 C 6.835938 -31.578125 7.703125 -31.210938 8.390625 -30.484375 C 9.085938 -29.765625 9.4375 -28.898438 9.4375 -27.890625 C 9.4375 -26.910156 9.085938 -26.050781 8.390625 -25.3125 C 7.703125 -24.582031 6.835938 -24.21875 5.796875 -24.21875 Z M 2.765625 0 L 2.765625 -22 L 8.828125 -22 L 8.828125 0 Z M 2.765625 0 "/></g></g></g><g clip-path="url(#e3ffffeae2)"><g fill="#ffffff" fill-opacity="1"><g transform="translate(76.902817, 41.730137)"><g><path d="M 13.03125 0.515625 C 10.207031 0.515625 8.148438 -0.0664062 6.859375 -1.234375 C 5.578125 -2.398438 4.9375 -4.140625 4.9375 -6.453125 L 4.9375 -16.765625 L 0.78125 -16.765625 L 0.78125 -22 L 1.609375 -22 C 2.523438 -22 3.242188 -22.097656 3.765625 -22.296875 C 4.285156 -22.503906 4.65625 -22.84375 4.875 -23.3125 C 5.09375 -23.789062 5.203125 -24.421875 5.203125 -25.203125 L 5.203125 -27.15625 L 11 -27.15625 L 11 -21.953125 L 16.03125 -21.953125 L 16.03125 -16.765625 L 11 -16.765625 L 11 -7.96875 C 11 -6.957031 11.257812 -6.253906 11.78125 -5.859375 C 12.300781 -5.472656 12.847656 -5.28125 13.421875 -5.28125 C 13.710938 -5.28125 14.070312 -5.296875 14.5 -5.328125 C 14.9375 -5.359375 15.328125 -5.398438 15.671875 -5.453125 L 15.71875 0.171875 C 15.34375 0.285156 14.890625 0.367188 14.359375 0.421875 C 13.828125 0.484375 13.382812 0.515625 13.03125 0.515625 Z M 13.03125 0.515625 "/></g></g></g></g><g clip-path="url(#b22d7db144)"><g fill="#ffffff" fill-opacity="1"><g transform="translate(94.22762, 41.730137)"><g><path d="M 13.125 0.515625 C 11.132812 0.515625 9.253906 0.113281 7.484375 -0.6875 C 5.722656 -1.5 4.296875 -2.753906 3.203125 -4.453125 C 2.109375 -6.160156 1.5625 -8.34375 1.5625 -11 C 1.5625 -13.019531 1.890625 -14.75 2.546875 -16.1875 C 3.210938 -17.632812 4.109375 -18.828125 5.234375 -19.765625 C 6.367188 -20.710938 7.617188 -21.40625 8.984375 -21.84375 C 10.359375 -22.289062 11.738281 -22.515625 13.125 -22.515625 C 15.113281 -22.515625 16.984375 -22.109375 18.734375 -21.296875 C 20.484375 -20.492188 21.894531 -19.25 22.96875 -17.5625 C 24.050781 -15.875 24.59375 -13.6875 24.59375 -11 C 24.59375 -9.007812 24.269531 -7.289062 23.625 -5.84375 C 22.976562 -4.40625 22.101562 -3.207031 21 -2.25 C 19.90625 -1.300781 18.671875 -0.601562 17.296875 -0.15625 C 15.929688 0.289062 14.539062 0.515625 13.125 0.515625 Z M 13.125 -4.671875 C 14.882812 -4.671875 16.179688 -5.238281 17.015625 -6.375 C 17.859375 -7.519531 18.28125 -9.0625 18.28125 -11 C 18.28125 -12.90625 17.867188 -14.4375 17.046875 -15.59375 C 16.222656 -16.75 14.914062 -17.328125 13.125 -17.328125 C 11.445312 -17.328125 10.15625 -16.75 9.25 -15.59375 C 8.34375 -14.4375 7.890625 -12.90625 7.890625 -11 C 7.890625 -9.0625 8.34375 -7.519531 9.25 -6.375 C 10.15625 -5.238281 11.445312 -4.671875 13.125 -4.671875 Z M 13.125 -4.671875 "/></g></g></g></g><g fill="#ffffff" fill-opacity="1"><g transform="translate(119.521816, 41.730137)"><g><path d="M 3.46875 0 L 3.46875 -22 L 9.53125 -22 L 9.53125 -18.359375 C 9.757812 -18.941406 10.050781 -19.484375 10.40625 -19.984375 C 10.769531 -20.492188 11.210938 -20.9375 11.734375 -21.3125 C 12.253906 -21.6875 12.832031 -21.976562 13.46875 -22.1875 C 14.101562 -22.40625 14.78125 -22.515625 15.5 -22.515625 C 15.738281 -22.515625 16.054688 -22.5 16.453125 -22.46875 C 16.859375 -22.445312 17.164062 -22.40625 17.375 -22.34375 L 17.375 -16.671875 C 16.9375 -16.816406 16.382812 -16.925781 15.71875 -17 C 15.050781 -17.070312 14.445312 -17.050781 13.90625 -16.9375 C 12.78125 -16.707031 11.898438 -16.273438 11.265625 -15.640625 C 10.628906 -15.003906 10.179688 -14.179688 9.921875 -13.171875 C 9.660156 -12.160156 9.53125 -10.960938 9.53125 -9.578125 L 9.53125 0 Z M 3.46875 0 "/></g></g></g><g fill="#ffffff" fill-opacity="1"><g transform="translate(137.669552, 41.730137)"><g><path d="M 3.890625 0 L 3.890625 -30.3125 L 14.640625 -30.3125 C 17.960938 -30.3125 20.695312 -29.675781 22.84375 -28.40625 C 25 -27.132812 26.601562 -25.363281 27.65625 -23.09375 C 28.707031 -20.832031 29.234375 -18.171875 29.234375 -15.109375 C 29.234375 -12.109375 28.707031 -9.472656 27.65625 -7.203125 C 26.601562 -4.941406 25 -3.175781 22.84375 -1.90625 C 20.695312 -0.632812 17.960938 0 14.640625 0 Z M 10.21875 -5.453125 L 14.765625 -5.453125 C 16.472656 -5.453125 17.90625 -5.785156 19.0625 -6.453125 C 20.21875 -7.117188 21.085938 -8.164062 21.671875 -9.59375 C 22.265625 -11.019531 22.5625 -12.875 22.5625 -15.15625 C 22.5625 -17.4375 22.265625 -19.285156 21.671875 -20.703125 C 21.085938 -22.117188 20.21875 -23.164062 19.0625 -23.84375 C 17.90625 -24.519531 16.472656 -24.859375 14.765625 -24.859375 L 10.21875 -24.859375 Z M 10.21875 -5.453125 "/></g></g></g><g clip-path="url(#37da76186e)"><g fill="#ffffff" fill-opacity="1"><g transform="translate(168.984139, 41.730137)"><g><path d="M 13.03125 0.5625 C 11.101562 0.5625 9.265625 0.113281 7.515625 -0.78125 C 5.765625 -1.675781 4.347656 -2.988281 3.265625 -4.71875 C 2.179688 -6.445312 1.640625 -8.570312 1.640625 -11.09375 C 1.640625 -13.050781 1.957031 -14.742188 2.59375 -16.171875 C 3.226562 -17.609375 4.085938 -18.796875 5.171875 -19.734375 C 6.253906 -20.671875 7.46875 -21.367188 8.8125 -21.828125 C 10.15625 -22.285156 11.535156 -22.515625 12.953125 -22.515625 C 15.117188 -22.515625 17 -22.046875 18.59375 -21.109375 C 20.195312 -20.171875 21.441406 -18.820312 22.328125 -17.0625 C 23.210938 -15.300781 23.65625 -13.191406 23.65625 -10.734375 L 23.65625 -9.3125 L 6.1875 -9.3125 L 6.15625 -13.03125 L 17.453125 -13.03125 C 17.453125 -13.40625 17.347656 -13.835938 17.140625 -14.328125 C 16.941406 -14.828125 16.644531 -15.300781 16.25 -15.75 C 15.863281 -16.195312 15.390625 -16.570312 14.828125 -16.875 C 14.265625 -17.175781 13.625 -17.328125 12.90625 -17.328125 C 11.695312 -17.328125 10.703125 -17.050781 9.921875 -16.5 C 9.140625 -15.945312 8.550781 -15.203125 8.15625 -14.265625 C 7.769531 -13.328125 7.578125 -12.269531 7.578125 -11.09375 C 7.578125 -9.757812 7.769531 -8.609375 8.15625 -7.640625 C 8.550781 -6.671875 9.160156 -5.925781 9.984375 -5.40625 C 10.804688 -4.894531 11.851562 -4.640625 13.125 -4.640625 C 13.550781 -4.640625 14.039062 -4.742188 14.59375 -4.953125 C 15.144531 -5.171875 15.664062 -5.492188 16.15625 -5.921875 C 16.644531 -6.359375 17.019531 -6.882812 17.28125 -7.5 L 23 -5.796875 C 22.332031 -4.210938 21.457031 -2.953125 20.375 -2.015625 C 19.289062 -1.078125 18.113281 -0.410156 16.84375 -0.015625 C 15.570312 0.367188 14.300781 0.5625 13.03125 0.5625 Z M 13.03125 0.5625 "/></g></g></g></g><g clip-path="url(#5c05c723f2)"><g fill="#ffffff" fill-opacity="1"><g transform="translate(194.148405, 41.730137)"><g><path d="M 11.90625 0.515625 C 9.625 0.515625 7.71875 0.132812 6.1875 -0.625 C 4.65625 -1.394531 3.5 -2.398438 2.71875 -3.640625 C 1.945312 -4.878906 1.5625 -6.207031 1.5625 -7.625 L 7.453125 -7.578125 C 7.453125 -6.890625 7.648438 -6.304688 8.046875 -5.828125 C 8.453125 -5.347656 9.007812 -4.992188 9.71875 -4.765625 C 10.425781 -4.535156 11.257812 -4.421875 12.21875 -4.421875 C 13.457031 -4.421875 14.4375 -4.59375 15.15625 -4.9375 C 15.882812 -5.28125 16.25 -5.875 16.25 -6.71875 C 16.25 -7.207031 15.914062 -7.570312 15.25 -7.8125 C 14.582031 -8.0625 13.722656 -8.257812 12.671875 -8.40625 C 11.617188 -8.550781 10.503906 -8.726562 9.328125 -8.9375 C 8.160156 -9.15625 7.050781 -9.492188 6 -9.953125 C 4.945312 -10.421875 4.085938 -11.085938 3.421875 -11.953125 C 2.753906 -12.816406 2.421875 -13.957031 2.421875 -15.375 C 2.421875 -16.707031 2.726562 -17.910156 3.34375 -18.984375 C 3.96875 -20.066406 4.972656 -20.925781 6.359375 -21.5625 C 7.753906 -22.195312 9.5625 -22.515625 11.78125 -22.515625 C 13.65625 -22.515625 15.21875 -22.285156 16.46875 -21.828125 C 17.726562 -21.367188 18.738281 -20.769531 19.5 -20.03125 C 20.269531 -19.289062 20.820312 -18.492188 21.15625 -17.640625 C 21.488281 -16.796875 21.65625 -15.984375 21.65625 -15.203125 L 15.765625 -15.203125 C 15.765625 -15.835938 15.398438 -16.390625 14.671875 -16.859375 C 13.953125 -17.335938 12.972656 -17.578125 11.734375 -17.578125 C 10.554688 -17.578125 9.710938 -17.40625 9.203125 -17.0625 C 8.703125 -16.71875 8.453125 -16.242188 8.453125 -15.640625 C 8.453125 -15.171875 8.703125 -14.804688 9.203125 -14.546875 C 9.710938 -14.285156 10.367188 -14.078125 11.171875 -13.921875 C 11.984375 -13.765625 12.882812 -13.597656 13.875 -13.421875 C 14.875 -13.253906 15.863281 -13.03125 16.84375 -12.75 C 17.832031 -12.476562 18.726562 -12.117188 19.53125 -11.671875 C 20.34375 -11.222656 21 -10.625 21.5 -9.875 C 22.007812 -9.125 22.265625 -8.171875 22.265625 -7.015625 C 22.265625 -5.453125 21.863281 -4.109375 21.0625 -2.984375 C 20.269531 -1.859375 19.101562 -0.992188 17.5625 -0.390625 C 16.019531 0.210938 14.132812 0.515625 11.90625 0.515625 Z M 11.90625 0.515625 "/></g></g></g></g><g clip-path="url(#d04b510855)"><g fill="#ffffff" fill-opacity="1"><g transform="translate(218.143259, 41.730137)"><g><path d="M 7.671875 -5.03125 L 4.421875 -9.09375 L 16.984375 -22 L 24.6875 -22 L 14.515625 -10.875 L 13.46875 -10.4375 Z M 3.46875 0.046875 L 3.46875 -30.796875 L 9.53125 -30.84375 L 9.53125 0 Z M 18.1875 0 L 10.609375 -12.125 L 15.890625 -15.203125 L 25.46875 0 Z M 18.1875 0 "/></g></g></g></g></g></g></g></g></g></g></svg>