<svg xmlns="http://www.w3.org/2000/svg" xmlns:xlink="http://www.w3.org/1999/xlink" width="500" zoomAndPan="magnify" viewBox="0 0 375 374.999991" height="500" preserveAspectRatio="xMidYMid meet" version="1.0"><defs><g/><clipPath id="ccce1d54a8"><path d="M 30 201 L 63 201 L 63 229.898438 L 30 229.898438 Z M 30 201 " clip-rule="nonzero"/></clipPath><clipPath id="bd3febca69"><path d="M 45 177.429688 L 110.25 177.429688 L 110.25 229.898438 L 45 229.898438 Z M 45 177.429688 " clip-rule="nonzero"/></clipPath></defs><path fill="#ffffff" d="M 102.472656 207.898438 C 102.472656 209.203125 101.417969 210.261719 100.113281 210.261719 L 90.210938 210.261719 C 88.90625 210.261719 87.847656 209.203125 87.847656 207.898438 C 87.847656 206.597656 88.90625 205.539062 90.210938 205.539062 L 100.113281 205.539062 C 101.417969 205.539062 102.472656 206.597656 102.472656 207.898438 " fill-opacity="1" fill-rule="nonzero"/><path fill="#ffffff" d="M 81.839844 213.859375 L 86.367188 213.859375 C 87.667969 213.859375 88.726562 214.917969 88.726562 216.222656 C 88.726562 217.527344 87.667969 218.582031 86.367188 218.582031 L 81.839844 218.582031 C 80.535156 218.582031 79.476562 217.527344 79.476562 216.222656 C 79.476562 214.917969 80.535156 213.859375 81.839844 213.859375 " fill-opacity="1" fill-rule="nonzero"/><g clip-path="url(#ccce1d54a8)"><path fill="#e5e4e4" d="M 62.339844 229.839844 L 45.28125 229.839844 L 30.027344 201.042969 L 47.085938 201.042969 L 62.339844 229.839844 " fill-opacity="1" fill-rule="nonzero"/></g><g clip-path="url(#bd3febca69)"><path fill="#ffffff" d="M 110.417969 199.535156 C 110.441406 200.859375 109.375 201.941406 108.054688 201.941406 L 78.203125 201.941406 C 77.535156 201.941406 76.921875 202.308594 76.609375 202.898438 C 75.976562 204.09375 76.84375 205.539062 78.203125 205.539062 L 83.390625 205.539062 C 84.691406 205.539062 85.804688 206.554688 85.832031 207.855469 C 85.855469 209.179688 84.785156 210.261719 83.46875 210.261719 L 73.792969 210.261719 C 73.125 210.261719 72.515625 210.628906 72.203125 211.21875 C 71.566406 212.417969 72.4375 213.859375 73.792969 213.859375 L 75.960938 213.859375 C 77.210938 213.859375 78.296875 214.804688 78.386719 216.050781 C 78.4375 216.769531 78.164062 217.429688 77.699219 217.890625 C 77.273438 218.320312 76.679688 218.582031 76.03125 218.582031 L 69.386719 218.582031 C 68.71875 218.582031 68.109375 218.949219 67.796875 219.539062 L 62.339844 229.84375 L 45.28125 229.84375 L 53.8125 213.738281 L 56.140625 209.339844 L 60.667969 200.789062 L 73.058594 177.394531 L 90.117188 177.394531 L 81.015625 194.578125 C 80.382812 195.773438 81.25 197.21875 82.605469 197.21875 L 107.976562 197.21875 C 109.277344 197.21875 110.390625 198.234375 110.417969 199.535156 " fill-opacity="1" fill-rule="nonzero"/></g><g fill="#ffffff" fill-opacity="1"><g transform="translate(115.677287, 189.458836)"><g><path d="M 1.703125 0 L 1.703125 -12.4375 L 9 -12.4375 L 9 -11.015625 L 3.265625 -11.015625 L 3.265625 -7.078125 L 7.921875 -7.078125 L 7.921875 -5.6875 L 3.265625 -5.6875 L 3.265625 -1.421875 L 9 -1.421875 L 9 0 Z M 1.703125 0 "/></g></g></g><g fill="#ffffff" fill-opacity="1"><g transform="translate(125.690489, 189.458836)"><g><path d="M 5.5625 0.21875 C 4.800781 0.21875 4.140625 0.101562 3.578125 -0.125 C 3.023438 -0.351562 2.5625 -0.65625 2.1875 -1.03125 C 1.820312 -1.40625 1.535156 -1.832031 1.328125 -2.3125 C 1.117188 -2.789062 0.984375 -3.285156 0.921875 -3.796875 L 2.640625 -3.796875 C 2.722656 -3.304688 2.882812 -2.863281 3.125 -2.46875 C 3.375 -2.082031 3.703125 -1.773438 4.109375 -1.546875 C 4.515625 -1.316406 5 -1.203125 5.5625 -1.203125 C 6.0625 -1.203125 6.515625 -1.285156 6.921875 -1.453125 C 7.335938 -1.628906 7.671875 -1.875 7.921875 -2.1875 C 8.171875 -2.507812 8.296875 -2.878906 8.296875 -3.296875 C 8.296875 -3.773438 8.164062 -4.148438 7.90625 -4.421875 C 7.65625 -4.691406 7.320312 -4.90625 6.90625 -5.0625 C 6.488281 -5.226562 6.03125 -5.367188 5.53125 -5.484375 C 5.039062 -5.597656 4.546875 -5.726562 4.046875 -5.875 C 3.546875 -6.019531 3.085938 -6.21875 2.671875 -6.46875 C 2.265625 -6.726562 1.929688 -7.070312 1.671875 -7.5 C 1.421875 -7.925781 1.296875 -8.484375 1.296875 -9.171875 C 1.296875 -9.773438 1.445312 -10.34375 1.75 -10.875 C 2.0625 -11.40625 2.53125 -11.832031 3.15625 -12.15625 C 3.78125 -12.488281 4.5625 -12.65625 5.5 -12.65625 C 6.175781 -12.65625 6.773438 -12.546875 7.296875 -12.328125 C 7.816406 -12.117188 8.253906 -11.835938 8.609375 -11.484375 C 8.972656 -11.140625 9.25 -10.757812 9.4375 -10.34375 C 9.625 -9.925781 9.726562 -9.515625 9.75 -9.109375 L 8.09375 -9.109375 C 8.039062 -9.460938 7.90625 -9.800781 7.6875 -10.125 C 7.476562 -10.445312 7.179688 -10.710938 6.796875 -10.921875 C 6.421875 -11.128906 5.953125 -11.234375 5.390625 -11.234375 C 4.972656 -11.234375 4.578125 -11.15625 4.203125 -11 C 3.828125 -10.84375 3.519531 -10.613281 3.28125 -10.3125 C 3.050781 -10.019531 2.9375 -9.664062 2.9375 -9.25 C 2.9375 -8.800781 3.0625 -8.441406 3.3125 -8.171875 C 3.5625 -7.910156 3.894531 -7.695312 4.3125 -7.53125 C 4.726562 -7.375 5.1875 -7.238281 5.6875 -7.125 C 6.1875 -7.007812 6.679688 -6.875 7.171875 -6.71875 C 7.671875 -6.5625 8.128906 -6.351562 8.546875 -6.09375 C 8.960938 -5.84375 9.296875 -5.503906 9.546875 -5.078125 C 9.804688 -4.660156 9.9375 -4.125 9.9375 -3.46875 C 9.9375 -2.65625 9.742188 -1.972656 9.359375 -1.421875 C 8.972656 -0.878906 8.445312 -0.46875 7.78125 -0.1875 C 7.125 0.0820312 6.382812 0.21875 5.5625 0.21875 Z M 5.5625 0.21875 "/></g></g></g><g fill="#ffffff" fill-opacity="1"><g transform="translate(135.756769, 189.458836)"><g><path d="M 4.25 0 L 4.25 -11.015625 L 0.890625 -11.015625 L 0.890625 -12.4375 L 9.171875 -12.4375 L 9.171875 -11.015625 L 5.8125 -11.015625 L 5.8125 0 Z M 4.25 0 "/></g></g></g><g fill="#ffffff" fill-opacity="1"><g transform="translate(145.73446, 189.458836)"><g><path d="M 7.703125 -2.90625 L 11.5625 -12.4375 L 13.734375 -12.4375 L 13.734375 0 L 12.171875 0 L 12.171875 -9.984375 L 8.59375 -1.09375 L 6.90625 -1.09375 L 3.25 -9.984375 L 3.25 0 L 1.6875 0 L 1.6875 -12.4375 L 3.859375 -12.4375 Z M 7.703125 -2.90625 "/></g></g></g><g fill="#ffffff" fill-opacity="1"><g transform="translate(161.144844, 189.458836)"><g><path d="M 0.140625 0 L 4.5 -12.4375 L 6.015625 -12.4375 L 1.84375 0 Z M 2.375 -3.46875 L 2.375 -4.890625 L 8.078125 -4.890625 L 8.078125 -3.46875 Z M 8.796875 0 L 4.59375 -12.4375 L 6.015625 -12.4375 L 10.359375 0 Z M 8.796875 0 "/></g></g></g><g fill="#ffffff" fill-opacity="1"><g transform="translate(171.282191, 189.458836)"><g><path d="M 6.390625 0.234375 C 5.472656 0.234375 4.679688 0.0507812 4.015625 -0.3125 C 3.347656 -0.6875 2.800781 -1.1875 2.375 -1.8125 C 1.945312 -2.4375 1.632812 -3.132812 1.4375 -3.90625 C 1.238281 -4.6875 1.140625 -5.488281 1.140625 -6.3125 C 1.140625 -7.15625 1.242188 -7.960938 1.453125 -8.734375 C 1.660156 -9.503906 1.972656 -10.179688 2.390625 -10.765625 C 2.816406 -11.359375 3.363281 -11.820312 4.03125 -12.15625 C 4.695312 -12.5 5.484375 -12.671875 6.390625 -12.671875 C 7.253906 -12.671875 8.023438 -12.507812 8.703125 -12.1875 C 9.378906 -11.863281 9.9375 -11.421875 10.375 -10.859375 C 10.820312 -10.296875 11.128906 -9.648438 11.296875 -8.921875 L 9.71875 -8.59375 C 9.582031 -9.101562 9.351562 -9.554688 9.03125 -9.953125 C 8.71875 -10.347656 8.335938 -10.660156 7.890625 -10.890625 C 7.441406 -11.128906 6.941406 -11.25 6.390625 -11.25 C 5.617188 -11.25 4.957031 -11.03125 4.40625 -10.59375 C 3.863281 -10.164062 3.445312 -9.582031 3.15625 -8.84375 C 2.875 -8.101562 2.734375 -7.269531 2.734375 -6.34375 C 2.734375 -5.382812 2.875 -4.515625 3.15625 -3.734375 C 3.445312 -2.953125 3.863281 -2.332031 4.40625 -1.875 C 4.957031 -1.414062 5.617188 -1.1875 6.390625 -1.1875 C 6.941406 -1.1875 7.441406 -1.300781 7.890625 -1.53125 C 8.335938 -1.769531 8.71875 -2.085938 9.03125 -2.484375 C 9.351562 -2.878906 9.582031 -3.332031 9.71875 -3.84375 L 11.296875 -3.515625 C 11.128906 -2.796875 10.820312 -2.148438 10.375 -1.578125 C 9.9375 -1.015625 9.378906 -0.570312 8.703125 -0.25 C 8.023438 0.0703125 7.253906 0.234375 6.390625 0.234375 Z M 6.390625 0.234375 "/></g></g></g><g fill="#ffffff" fill-opacity="1"><g transform="translate(117.167171, 229.537528)"><g><path d="M 0.09375 -30.828125 L 7.046875 -30.828125 L 17.484375 0 L 10.875 0 Z M 22.421875 -30.828125 L 29.109375 -30.828125 L 18.375 0 L 12.296875 0 Z M 22.421875 -30.828125 "/></g></g></g><g fill="#ffffff" fill-opacity="1"><g transform="translate(146.36503, 229.537528)"><g><path d="M 5.90625 -24.625 C 4.90625 -24.625 4.035156 -25 3.296875 -25.75 C 2.566406 -26.5 2.203125 -27.367188 2.203125 -28.359375 C 2.203125 -29.390625 2.566406 -30.269531 3.296875 -31 C 4.035156 -31.738281 4.90625 -32.109375 5.90625 -32.109375 C 6.957031 -32.109375 7.835938 -31.738281 8.546875 -31 C 9.253906 -30.269531 9.609375 -29.390625 9.609375 -28.359375 C 9.609375 -27.367188 9.253906 -26.5 8.546875 -25.75 C 7.835938 -25 6.957031 -24.625 5.90625 -24.625 Z M 2.8125 0 L 2.8125 -22.375 L 8.984375 -22.375 L 8.984375 0 Z M 2.8125 0 "/></g></g></g><g fill="#ffffff" fill-opacity="1"><g transform="translate(158.167481, 229.537528)"><g><path d="M 12.109375 0.53125 C 9.796875 0.53125 7.859375 0.140625 6.296875 -0.640625 C 4.742188 -1.421875 3.566406 -2.441406 2.765625 -3.703125 C 1.972656 -4.960938 1.578125 -6.3125 1.578125 -7.75 L 7.578125 -7.703125 C 7.578125 -7.003906 7.78125 -6.410156 8.1875 -5.921875 C 8.601562 -5.441406 9.171875 -5.082031 9.890625 -4.84375 C 10.609375 -4.613281 11.453125 -4.5 12.421875 -4.5 C 13.679688 -4.5 14.675781 -4.671875 15.40625 -5.015625 C 16.144531 -5.367188 16.515625 -5.972656 16.515625 -6.828125 C 16.515625 -7.328125 16.175781 -7.703125 15.5 -7.953125 C 14.820312 -8.203125 13.945312 -8.398438 12.875 -8.546875 C 11.8125 -8.691406 10.679688 -8.875 9.484375 -9.09375 C 8.296875 -9.3125 7.164062 -9.65625 6.09375 -10.125 C 5.03125 -10.59375 4.160156 -11.269531 3.484375 -12.15625 C 2.804688 -13.039062 2.46875 -14.203125 2.46875 -15.640625 C 2.46875 -16.984375 2.78125 -18.207031 3.40625 -19.3125 C 4.039062 -20.414062 5.0625 -21.289062 6.46875 -21.9375 C 7.882812 -22.582031 9.722656 -22.90625 11.984375 -22.90625 C 13.890625 -22.90625 15.476562 -22.671875 16.75 -22.203125 C 18.03125 -21.734375 19.0625 -21.125 19.84375 -20.375 C 20.625 -19.625 21.179688 -18.816406 21.515625 -17.953125 C 21.859375 -17.085938 22.03125 -16.253906 22.03125 -15.453125 L 16.03125 -15.453125 C 16.03125 -16.097656 15.660156 -16.664062 14.921875 -17.15625 C 14.191406 -17.644531 13.195312 -17.890625 11.9375 -17.890625 C 10.726562 -17.890625 9.867188 -17.710938 9.359375 -17.359375 C 8.847656 -17.003906 8.59375 -16.519531 8.59375 -15.90625 C 8.59375 -15.4375 8.847656 -15.066406 9.359375 -14.796875 C 9.867188 -14.535156 10.535156 -14.320312 11.359375 -14.15625 C 12.179688 -14 13.097656 -13.832031 14.109375 -13.65625 C 15.128906 -13.476562 16.132812 -13.25 17.125 -12.96875 C 18.125 -12.6875 19.035156 -12.316406 19.859375 -11.859375 C 20.679688 -11.410156 21.347656 -10.800781 21.859375 -10.03125 C 22.378906 -9.269531 22.640625 -8.304688 22.640625 -7.140625 C 22.640625 -5.546875 22.234375 -4.175781 21.421875 -3.03125 C 20.617188 -1.894531 19.429688 -1.015625 17.859375 -0.390625 C 16.285156 0.222656 14.367188 0.53125 12.109375 0.53125 Z M 12.109375 0.53125 "/></g></g></g><g fill="#ffffff" fill-opacity="1"><g transform="translate(182.565093, 229.537528)"><g><path d="M 5.90625 -24.625 C 4.90625 -24.625 4.035156 -25 3.296875 -25.75 C 2.566406 -26.5 2.203125 -27.367188 2.203125 -28.359375 C 2.203125 -29.390625 2.566406 -30.269531 3.296875 -31 C 4.035156 -31.738281 4.90625 -32.109375 5.90625 -32.109375 C 6.957031 -32.109375 7.835938 -31.738281 8.546875 -31 C 9.253906 -30.269531 9.609375 -29.390625 9.609375 -28.359375 C 9.609375 -27.367188 9.253906 -26.5 8.546875 -25.75 C 7.835938 -25 6.957031 -24.625 5.90625 -24.625 Z M 2.8125 0 L 2.8125 -22.375 L 8.984375 -22.375 L 8.984375 0 Z M 2.8125 0 "/></g></g></g><g fill="#ffffff" fill-opacity="1"><g transform="translate(194.367544, 229.537528)"><g><path d="M 13.265625 0.53125 C 10.378906 0.53125 8.28125 -0.0625 6.96875 -1.25 C 5.664062 -2.445312 5.015625 -4.21875 5.015625 -6.5625 L 5.015625 -17.046875 L 0.796875 -17.046875 L 0.796875 -22.375 L 1.625 -22.375 C 2.570312 -22.375 3.304688 -22.476562 3.828125 -22.6875 C 4.359375 -22.894531 4.734375 -23.238281 4.953125 -23.71875 C 5.171875 -24.207031 5.28125 -24.847656 5.28125 -25.640625 L 5.28125 -27.625 L 11.1875 -27.625 L 11.1875 -22.328125 L 16.296875 -22.328125 L 16.296875 -17.046875 L 11.1875 -17.046875 L 11.1875 -8.109375 C 11.1875 -7.078125 11.453125 -6.363281 11.984375 -5.96875 C 12.515625 -5.570312 13.070312 -5.375 13.65625 -5.375 C 13.945312 -5.375 14.3125 -5.390625 14.75 -5.421875 C 15.195312 -5.453125 15.59375 -5.492188 15.9375 -5.546875 L 15.984375 0.171875 C 15.609375 0.296875 15.144531 0.382812 14.59375 0.4375 C 14.050781 0.5 13.609375 0.53125 13.265625 0.53125 Z M 13.265625 0.53125 "/></g></g></g><g fill="#ffffff" fill-opacity="1"><g transform="translate(211.983148, 229.537528)"><g><path d="M 13.34375 0.53125 C 11.320312 0.53125 9.414062 0.117188 7.625 -0.703125 C 5.832031 -1.523438 4.375 -2.800781 3.25 -4.53125 C 2.132812 -6.269531 1.578125 -8.488281 1.578125 -11.1875 C 1.578125 -13.238281 1.914062 -15 2.59375 -16.46875 C 3.269531 -17.9375 4.179688 -19.144531 5.328125 -20.09375 C 6.472656 -21.050781 7.742188 -21.757812 9.140625 -22.21875 C 10.535156 -22.675781 11.9375 -22.90625 13.34375 -22.90625 C 15.375 -22.90625 17.273438 -22.492188 19.046875 -21.671875 C 20.828125 -20.847656 22.265625 -19.578125 23.359375 -17.859375 C 24.460938 -16.140625 25.015625 -13.914062 25.015625 -11.1875 C 25.015625 -9.164062 24.679688 -7.421875 24.015625 -5.953125 C 23.359375 -4.484375 22.472656 -3.265625 21.359375 -2.296875 C 20.242188 -1.328125 18.988281 -0.613281 17.59375 -0.15625 C 16.195312 0.300781 14.78125 0.53125 13.34375 0.53125 Z M 13.34375 -4.75 C 15.132812 -4.75 16.457031 -5.328125 17.3125 -6.484375 C 18.164062 -7.648438 18.59375 -9.21875 18.59375 -11.1875 C 18.59375 -13.125 18.171875 -14.679688 17.328125 -15.859375 C 16.492188 -17.035156 15.164062 -17.625 13.34375 -17.625 C 11.644531 -17.625 10.332031 -17.035156 9.40625 -15.859375 C 8.476562 -14.679688 8.015625 -13.125 8.015625 -11.1875 C 8.015625 -9.21875 8.476562 -7.648438 9.40625 -6.484375 C 10.332031 -5.328125 11.644531 -4.75 13.34375 -4.75 Z M 13.34375 -4.75 "/></g></g></g><g fill="#ffffff" fill-opacity="1"><g transform="translate(237.701911, 229.537528)"><g><path d="M 3.53125 0 L 3.53125 -22.375 L 9.6875 -22.375 L 9.6875 -18.671875 C 9.925781 -19.265625 10.226562 -19.816406 10.59375 -20.328125 C 10.957031 -20.835938 11.40625 -21.285156 11.9375 -21.671875 C 12.46875 -22.054688 13.054688 -22.359375 13.703125 -22.578125 C 14.347656 -22.796875 15.035156 -22.90625 15.765625 -22.90625 C 16.003906 -22.90625 16.328125 -22.890625 16.734375 -22.859375 C 17.148438 -22.828125 17.457031 -22.785156 17.65625 -22.734375 L 17.65625 -16.953125 C 17.21875 -17.097656 16.660156 -17.207031 15.984375 -17.28125 C 15.304688 -17.363281 14.691406 -17.34375 14.140625 -17.21875 C 12.992188 -16.988281 12.097656 -16.550781 11.453125 -15.90625 C 10.804688 -15.257812 10.347656 -14.421875 10.078125 -13.390625 C 9.816406 -12.359375 9.6875 -11.140625 9.6875 -9.734375 L 9.6875 0 Z M 3.53125 0 "/></g></g></g><g fill="#ffffff" fill-opacity="1"><g transform="translate(256.154261, 229.537528)"><g><path d="M 3.96875 0 L 3.96875 -30.828125 L 14.890625 -30.828125 C 18.265625 -30.828125 21.046875 -30.179688 23.234375 -28.890625 C 25.421875 -27.597656 27.050781 -25.800781 28.125 -23.5 C 29.195312 -21.195312 29.734375 -18.488281 29.734375 -15.375 C 29.734375 -12.320312 29.195312 -9.640625 28.125 -7.328125 C 27.050781 -5.023438 25.421875 -3.226562 23.234375 -1.9375 C 21.046875 -0.644531 18.265625 0 14.890625 0 Z M 10.390625 -5.546875 L 15.015625 -5.546875 C 16.753906 -5.546875 18.207031 -5.882812 19.375 -6.5625 C 20.550781 -7.238281 21.441406 -8.300781 22.046875 -9.75 C 22.648438 -11.207031 22.953125 -13.097656 22.953125 -15.421875 C 22.953125 -17.734375 22.648438 -19.609375 22.046875 -21.046875 C 21.441406 -22.492188 20.550781 -23.5625 19.375 -24.25 C 18.207031 -24.9375 16.753906 -25.28125 15.015625 -25.28125 L 10.390625 -25.28125 Z M 10.390625 -5.546875 "/></g></g></g><g fill="#ffffff" fill-opacity="1"><g transform="translate(287.994468, 229.537528)"><g><path d="M 13.265625 0.578125 C 11.296875 0.578125 9.421875 0.125 7.640625 -0.78125 C 5.867188 -1.695312 4.429688 -3.035156 3.328125 -4.796875 C 2.222656 -6.554688 1.671875 -8.71875 1.671875 -11.28125 C 1.671875 -13.269531 1.992188 -14.988281 2.640625 -16.4375 C 3.285156 -17.894531 4.160156 -19.101562 5.265625 -20.0625 C 6.367188 -21.019531 7.601562 -21.734375 8.96875 -22.203125 C 10.332031 -22.671875 11.734375 -22.90625 13.171875 -22.90625 C 15.367188 -22.90625 17.28125 -22.425781 18.90625 -21.46875 C 20.539062 -20.519531 21.804688 -19.148438 22.703125 -17.359375 C 23.597656 -15.566406 24.046875 -13.421875 24.046875 -10.921875 L 24.046875 -9.46875 L 6.296875 -9.46875 L 6.25 -13.265625 L 17.75 -13.265625 C 17.75 -13.640625 17.644531 -14.078125 17.4375 -14.578125 C 17.238281 -15.078125 16.9375 -15.550781 16.53125 -16 C 16.132812 -16.457031 15.648438 -16.84375 15.078125 -17.15625 C 14.515625 -17.46875 13.863281 -17.625 13.125 -17.625 C 11.894531 -17.625 10.878906 -17.34375 10.078125 -16.78125 C 9.285156 -16.21875 8.691406 -15.457031 8.296875 -14.5 C 7.898438 -13.550781 7.703125 -12.476562 7.703125 -11.28125 C 7.703125 -9.925781 7.898438 -8.753906 8.296875 -7.765625 C 8.691406 -6.785156 9.304688 -6.03125 10.140625 -5.5 C 10.984375 -4.976562 12.050781 -4.71875 13.34375 -4.71875 C 13.78125 -4.71875 14.28125 -4.828125 14.84375 -5.046875 C 15.40625 -5.265625 15.929688 -5.59375 16.421875 -6.03125 C 16.921875 -6.46875 17.304688 -7 17.578125 -7.625 L 23.390625 -5.90625 C 22.710938 -4.289062 21.820312 -3.003906 20.71875 -2.046875 C 19.625 -1.085938 18.429688 -0.410156 17.140625 -0.015625 C 15.847656 0.378906 14.554688 0.578125 13.265625 0.578125 Z M 13.265625 0.578125 "/></g></g></g><g fill="#ffffff" fill-opacity="1"><g transform="translate(313.581122, 229.537528)"><g><path d="M 12.109375 0.53125 C 9.796875 0.53125 7.859375 0.140625 6.296875 -0.640625 C 4.742188 -1.421875 3.566406 -2.441406 2.765625 -3.703125 C 1.972656 -4.960938 1.578125 -6.3125 1.578125 -7.75 L 7.578125 -7.703125 C 7.578125 -7.003906 7.78125 -6.410156 8.1875 -5.921875 C 8.601562 -5.441406 9.171875 -5.082031 9.890625 -4.84375 C 10.609375 -4.613281 11.453125 -4.5 12.421875 -4.5 C 13.679688 -4.5 14.675781 -4.671875 15.40625 -5.015625 C 16.144531 -5.367188 16.515625 -5.972656 16.515625 -6.828125 C 16.515625 -7.328125 16.175781 -7.703125 15.5 -7.953125 C 14.820312 -8.203125 13.945312 -8.398438 12.875 -8.546875 C 11.8125 -8.691406 10.679688 -8.875 9.484375 -9.09375 C 8.296875 -9.3125 7.164062 -9.65625 6.09375 -10.125 C 5.03125 -10.59375 4.160156 -11.269531 3.484375 -12.15625 C 2.804688 -13.039062 2.46875 -14.203125 2.46875 -15.640625 C 2.46875 -16.984375 2.78125 -18.207031 3.40625 -19.3125 C 4.039062 -20.414062 5.0625 -21.289062 6.46875 -21.9375 C 7.882812 -22.582031 9.722656 -22.90625 11.984375 -22.90625 C 13.890625 -22.90625 15.476562 -22.671875 16.75 -22.203125 C 18.03125 -21.734375 19.0625 -21.125 19.84375 -20.375 C 20.625 -19.625 21.179688 -18.816406 21.515625 -17.953125 C 21.859375 -17.085938 22.03125 -16.253906 22.03125 -15.453125 L 16.03125 -15.453125 C 16.03125 -16.097656 15.660156 -16.664062 14.921875 -17.15625 C 14.191406 -17.644531 13.195312 -17.890625 11.9375 -17.890625 C 10.726562 -17.890625 9.867188 -17.710938 9.359375 -17.359375 C 8.847656 -17.003906 8.59375 -16.519531 8.59375 -15.90625 C 8.59375 -15.4375 8.847656 -15.066406 9.359375 -14.796875 C 9.867188 -14.535156 10.535156 -14.320312 11.359375 -14.15625 C 12.179688 -14 13.097656 -13.832031 14.109375 -13.65625 C 15.128906 -13.476562 16.132812 -13.25 17.125 -12.96875 C 18.125 -12.6875 19.035156 -12.316406 19.859375 -11.859375 C 20.679688 -11.410156 21.347656 -10.800781 21.859375 -10.03125 C 22.378906 -9.269531 22.640625 -8.304688 22.640625 -7.140625 C 22.640625 -5.546875 22.234375 -4.175781 21.421875 -3.03125 C 20.617188 -1.894531 19.429688 -1.015625 17.859375 -0.390625 C 16.285156 0.222656 14.367188 0.53125 12.109375 0.53125 Z M 12.109375 0.53125 "/></g></g></g><g fill="#ffffff" fill-opacity="1"><g transform="translate(337.978733, 229.537528)"><g><path d="M 7.796875 -5.109375 L 4.5 -9.25 L 17.265625 -22.375 L 25.109375 -22.375 L 14.75 -11.0625 L 13.703125 -10.609375 Z M 3.53125 0.046875 L 3.53125 -31.3125 L 9.6875 -31.359375 L 9.6875 0 Z M 18.5 0 L 10.796875 -12.328125 L 16.171875 -15.453125 L 25.90625 0 Z M 18.5 0 "/></g></g></g></svg>