<svg xmlns="http://www.w3.org/2000/svg" xmlns:xlink="http://www.w3.org/1999/xlink" width="107" zoomAndPan="magnify" viewBox="0 0 80.25 52.499999" height="70" preserveAspectRatio="xMidYMid meet" version="1.0"><defs><g/><clipPath id="ca650f71e8"><path d="M 0.136719 23 L 32 23 L 32 51.464844 L 0.136719 51.464844 Z M 0.136719 23 " clip-rule="nonzero"/></clipPath><clipPath id="06c0492387"><path d="M 15 0.214844 L 79.5 0.214844 L 79.5 51.464844 L 15 51.464844 Z M 15 0.214844 " clip-rule="nonzero"/></clipPath><clipPath id="d224c1ccd5"><path d="M 0.519531 2 L 3 2 L 3 5 L 0.519531 5 Z M 0.519531 2 " clip-rule="nonzero"/></clipPath><clipPath id="c5a749c71a"><rect x="0" width="4" y="0" height="6"/></clipPath></defs><path fill="#ffffff" d="M 71.46875 30.210938 C 71.46875 31.496094 70.429688 32.535156 69.144531 32.535156 L 59.402344 32.535156 C 58.117188 32.535156 57.078125 31.496094 57.078125 30.210938 C 57.078125 28.929688 58.117188 27.890625 59.402344 27.890625 L 69.144531 27.890625 C 70.429688 27.890625 71.46875 28.929688 71.46875 30.210938 " fill-opacity="1" fill-rule="nonzero"/><path fill="#ffffff" d="M 51.164062 36.078125 L 55.617188 36.078125 C 56.902344 36.078125 57.941406 37.117188 57.941406 38.398438 C 57.941406 39.683594 56.902344 40.722656 55.617188 40.722656 L 51.164062 40.722656 C 49.882812 40.722656 48.839844 39.683594 48.839844 38.398438 C 48.839844 37.117188 49.882812 36.078125 51.164062 36.078125 " fill-opacity="1" fill-rule="nonzero"/><g clip-path="url(#ca650f71e8)"><path fill="#e5e4e4" d="M 31.976562 51.800781 L 15.195312 51.800781 L 0.1875 23.464844 L 16.96875 23.464844 L 31.976562 51.800781 " fill-opacity="1" fill-rule="nonzero"/></g><g clip-path="url(#06c0492387)"><path fill="#ffffff" d="M 79.285156 21.980469 C 79.308594 23.285156 78.261719 24.347656 76.960938 24.347656 L 47.585938 24.347656 C 46.929688 24.347656 46.328125 24.710938 46.019531 25.289062 C 45.394531 26.46875 46.25 27.890625 47.585938 27.890625 L 52.691406 27.890625 C 53.972656 27.890625 55.066406 28.890625 55.09375 30.167969 C 55.113281 31.472656 54.066406 32.535156 52.769531 32.535156 L 43.246094 32.535156 C 42.59375 32.535156 41.992188 32.898438 41.683594 33.476562 C 41.058594 34.65625 41.914062 36.078125 43.246094 36.078125 L 45.378906 36.078125 C 46.609375 36.078125 47.679688 37.003906 47.765625 38.234375 C 47.816406 38.941406 47.550781 39.585938 47.09375 40.042969 C 46.671875 40.464844 46.089844 40.722656 45.449219 40.722656 L 38.910156 40.722656 C 38.257812 40.722656 37.65625 41.085938 37.347656 41.664062 L 31.980469 51.800781 L 15.195312 51.800781 L 23.585938 35.957031 L 25.878906 31.628906 L 30.335938 23.214844 L 42.527344 0.199219 L 59.308594 0.199219 L 50.355469 17.105469 C 49.734375 18.28125 50.585938 19.703125 51.921875 19.703125 L 76.882812 19.703125 C 78.164062 19.703125 79.257812 20.703125 79.285156 21.980469 " fill-opacity="1" fill-rule="nonzero"/></g><g transform="matrix(1, 0, 0, 1, 38, 23)"><g clip-path="url(#c5a749c71a)"><g clip-path="url(#d224c1ccd5)"><g fill="#ffffff" fill-opacity="1"><g transform="translate(0.627113, 4.364383)"><g><path d="M 0.828125 0.046875 C 0.691406 0.046875 0.570312 0.0195312 0.46875 -0.03125 C 0.375 -0.0820312 0.296875 -0.15625 0.234375 -0.25 C 0.179688 -0.351562 0.15625 -0.472656 0.15625 -0.609375 C 0.15625 -0.734375 0.179688 -0.835938 0.234375 -0.921875 C 0.296875 -1.015625 0.382812 -1.085938 0.5 -1.140625 C 0.613281 -1.191406 0.757812 -1.234375 0.9375 -1.265625 C 1.070312 -1.285156 1.171875 -1.304688 1.234375 -1.328125 C 1.296875 -1.359375 1.335938 -1.390625 1.359375 -1.421875 C 1.390625 -1.453125 1.40625 -1.488281 1.40625 -1.53125 C 1.40625 -1.601562 1.378906 -1.65625 1.328125 -1.6875 C 1.285156 -1.726562 1.207031 -1.75 1.09375 -1.75 C 0.976562 -1.75 0.863281 -1.722656 0.75 -1.671875 C 0.644531 -1.617188 0.550781 -1.546875 0.46875 -1.453125 L 0.4375 -1.453125 L 0.21875 -1.796875 C 0.320312 -1.921875 0.453125 -2.015625 0.609375 -2.078125 C 0.765625 -2.140625 0.9375 -2.171875 1.125 -2.171875 C 1.40625 -2.171875 1.609375 -2.109375 1.734375 -1.984375 C 1.859375 -1.867188 1.921875 -1.703125 1.921875 -1.484375 L 1.921875 -0.5625 C 1.921875 -0.46875 1.960938 -0.421875 2.046875 -0.421875 C 2.078125 -0.421875 2.109375 -0.425781 2.140625 -0.4375 L 2.171875 -0.421875 L 2.21875 -0.046875 C 2.1875 -0.0234375 2.140625 -0.0078125 2.078125 0 C 2.023438 0.0078125 1.96875 0.015625 1.90625 0.015625 C 1.78125 0.015625 1.679688 -0.00390625 1.609375 -0.046875 C 1.535156 -0.0976562 1.484375 -0.175781 1.453125 -0.28125 L 1.421875 -0.296875 C 1.316406 -0.0664062 1.117188 0.046875 0.828125 0.046875 Z M 1 -0.359375 C 1.125 -0.359375 1.222656 -0.398438 1.296875 -0.484375 C 1.367188 -0.566406 1.40625 -0.679688 1.40625 -0.828125 L 1.40625 -1.046875 L 1.375 -1.0625 C 1.34375 -1.03125 1.300781 -1.003906 1.25 -0.984375 C 1.195312 -0.972656 1.117188 -0.957031 1.015625 -0.9375 C 0.898438 -0.914062 0.816406 -0.878906 0.765625 -0.828125 C 0.722656 -0.785156 0.703125 -0.722656 0.703125 -0.640625 C 0.703125 -0.546875 0.726562 -0.472656 0.78125 -0.421875 C 0.832031 -0.378906 0.90625 -0.359375 1 -0.359375 Z M 1 -0.359375 "/></g></g></g></g></g></g></svg>