<svg xmlns="http://www.w3.org/2000/svg" xmlns:xlink="http://www.w3.org/1999/xlink" width="445" zoomAndPan="magnify" viewBox="0 0 333.75 52.499999" height="70" preserveAspectRatio="xMidYMid meet" version="1.0"><defs><g/><clipPath id="3761a9d4bd"><path d="M 2 0 L 332 0 L 332 52.003906 L 2 52.003906 Z M 2 0 " clip-rule="nonzero"/></clipPath><clipPath id="e7ab864179"><path d="M 0.402344 23 L 33 23 L 33 51.972656 L 0.402344 51.972656 Z M 0.402344 23 " clip-rule="nonzero"/></clipPath><clipPath id="8be2c7dc4f"><path d="M 15 0.316406 L 79.390625 0.316406 L 79.390625 51.972656 L 15 51.972656 Z M 15 0.316406 " clip-rule="nonzero"/></clipPath><clipPath id="b46bbe9396"><path d="M 86 0 L 94 0 L 94 13 L 86 13 Z M 86 0 " clip-rule="nonzero"/></clipPath><clipPath id="dfd4f9bbd6"><path d="M 95 0 L 105 0 L 105 13 L 95 13 Z M 95 0 " clip-rule="nonzero"/></clipPath><clipPath id="08d1d349d9"><path d="M 105 0 L 114 0 L 114 13 L 105 13 Z M 105 0 " clip-rule="nonzero"/></clipPath><clipPath id="646da569d0"><path d="M 115 0 L 128 0 L 128 13 L 115 13 Z M 115 0 " clip-rule="nonzero"/></clipPath><clipPath id="94fe978fea"><path d="M 129 0 L 140 0 L 140 13 L 129 13 Z M 129 0 " clip-rule="nonzero"/></clipPath><clipPath id="b711cfc9c6"><path d="M 140 0 L 151 0 L 151 13 L 140 13 Z M 140 0 " clip-rule="nonzero"/></clipPath><clipPath id="a607c7f2ba"><path d="M 128 29 L 149 29 L 149 52.003906 L 128 52.003906 Z M 128 29 " clip-rule="nonzero"/></clipPath><clipPath id="6da6bfd2ae"><path d="M 162 24 L 179 24 L 179 52.003906 L 162 52.003906 Z M 162 24 " clip-rule="nonzero"/></clipPath><clipPath id="6197df4efe"><path d="M 181 29 L 205 29 L 205 52.003906 L 181 52.003906 Z M 181 29 " clip-rule="nonzero"/></clipPath><clipPath id="bff6a0d9f7"><path d="M 256 29 L 279 29 L 279 52.003906 L 256 52.003906 Z M 256 29 " clip-rule="nonzero"/></clipPath><clipPath id="8a0dbed836"><path d="M 281 29 L 302 29 L 302 52.003906 L 281 52.003906 Z M 281 29 " clip-rule="nonzero"/></clipPath><clipPath id="98995e4b78"><path d="M 307 20 L 329.902344 20 L 329.902344 52 L 307 52 Z M 307 20 " clip-rule="nonzero"/></clipPath><clipPath id="8774a9d271"><rect x="0" width="330" y="0" height="53"/></clipPath></defs><g clip-path="url(#3761a9d4bd)"><g transform="matrix(1, 0, 0, 1, 2, 0)"><g clip-path="url(#8774a9d271)"><path fill="#ffffff" d="M 71.734375 30.316406 C 71.734375 31.597656 70.695312 32.640625 69.410156 32.640625 L 59.660156 32.640625 C 58.375 32.640625 57.332031 31.597656 57.332031 30.316406 C 57.332031 29.03125 58.375 27.992188 59.660156 27.992188 L 69.410156 27.992188 C 70.695312 27.992188 71.734375 29.03125 71.734375 30.316406 " fill-opacity="1" fill-rule="nonzero"/><path fill="#ffffff" d="M 51.417969 36.183594 L 55.875 36.183594 C 57.160156 36.183594 58.199219 37.222656 58.199219 38.507812 C 58.199219 39.792969 57.160156 40.832031 55.875 40.832031 L 51.417969 40.832031 C 50.132812 40.832031 49.09375 39.792969 49.09375 38.507812 C 49.09375 37.222656 50.132812 36.183594 51.417969 36.183594 " fill-opacity="1" fill-rule="nonzero"/><g clip-path="url(#e7ab864179)"><path fill="#e5e4e4" d="M 32.21875 51.917969 L 15.425781 51.917969 L 0.40625 23.5625 L 17.199219 23.5625 L 32.21875 51.917969 " fill-opacity="1" fill-rule="nonzero"/></g><g clip-path="url(#8be2c7dc4f)"><path fill="#ffffff" d="M 79.554688 22.078125 C 79.582031 23.382812 78.53125 24.449219 77.230469 24.449219 L 47.835938 24.449219 C 47.179688 24.449219 46.578125 24.808594 46.269531 25.390625 C 45.644531 26.570312 46.5 27.992188 47.835938 27.992188 L 52.945312 27.992188 C 54.226562 27.992188 55.324219 28.992188 55.347656 30.273438 C 55.371094 31.578125 54.320312 32.640625 53.023438 32.640625 L 43.496094 32.640625 C 42.839844 32.640625 42.238281 33.003906 41.929688 33.582031 C 41.304688 34.761719 42.160156 36.183594 43.496094 36.183594 L 45.628906 36.183594 C 46.863281 36.183594 47.933594 37.113281 48.019531 38.339844 C 48.066406 39.050781 47.800781 39.695312 47.34375 40.152344 C 46.921875 40.574219 46.339844 40.832031 45.699219 40.832031 L 39.15625 40.832031 C 38.5 40.832031 37.898438 41.195312 37.59375 41.777344 L 32.21875 51.917969 L 15.421875 51.917969 L 23.824219 36.0625 L 26.117188 31.730469 L 30.574219 23.316406 L 42.773438 0.28125 L 59.566406 0.28125 L 50.609375 17.199219 C 49.984375 18.378906 50.839844 19.796875 52.171875 19.796875 L 77.152344 19.796875 C 78.433594 19.796875 79.53125 20.796875 79.554688 22.078125 " fill-opacity="1" fill-rule="nonzero"/></g><g clip-path="url(#b46bbe9396)"><g fill="#ffffff" fill-opacity="1"><g transform="translate(84.734175, 12.158859)"><g><path d="M 1.671875 0 L 1.671875 -12.234375 L 8.859375 -12.234375 L 8.859375 -10.84375 L 3.21875 -10.84375 L 3.21875 -6.953125 L 7.796875 -6.953125 L 7.796875 -5.59375 L 3.21875 -5.59375 L 3.21875 -1.40625 L 8.859375 -1.40625 L 8.859375 0 Z M 1.671875 0 "/></g></g></g></g><g clip-path="url(#dfd4f9bbd6)"><g fill="#ffffff" fill-opacity="1"><g transform="translate(94.592894, 12.158859)"><g><path d="M 5.46875 0.203125 C 4.726562 0.203125 4.082031 0.09375 3.53125 -0.125 C 2.976562 -0.34375 2.519531 -0.640625 2.15625 -1.015625 C 1.789062 -1.390625 1.503906 -1.8125 1.296875 -2.28125 C 1.097656 -2.75 0.96875 -3.234375 0.90625 -3.734375 L 2.609375 -3.734375 C 2.691406 -3.242188 2.847656 -2.804688 3.078125 -2.421875 C 3.316406 -2.046875 3.640625 -1.742188 4.046875 -1.515625 C 4.453125 -1.296875 4.925781 -1.1875 5.46875 -1.1875 C 5.957031 -1.1875 6.40625 -1.269531 6.8125 -1.4375 C 7.226562 -1.613281 7.554688 -1.851562 7.796875 -2.15625 C 8.046875 -2.46875 8.171875 -2.832031 8.171875 -3.25 C 8.171875 -3.71875 8.039062 -4.082031 7.78125 -4.34375 C 7.53125 -4.613281 7.203125 -4.828125 6.796875 -4.984375 C 6.390625 -5.148438 5.941406 -5.285156 5.453125 -5.390625 C 4.960938 -5.503906 4.472656 -5.632812 3.984375 -5.78125 C 3.492188 -5.925781 3.046875 -6.125 2.640625 -6.375 C 2.234375 -6.625 1.90625 -6.957031 1.65625 -7.375 C 1.40625 -7.800781 1.28125 -8.347656 1.28125 -9.015625 C 1.28125 -9.609375 1.429688 -10.164062 1.734375 -10.6875 C 2.035156 -11.21875 2.488281 -11.644531 3.09375 -11.96875 C 3.707031 -12.289062 4.484375 -12.453125 5.421875 -12.453125 C 6.085938 -12.453125 6.675781 -12.34375 7.1875 -12.125 C 7.695312 -11.914062 8.125 -11.640625 8.46875 -11.296875 C 8.820312 -10.953125 9.09375 -10.578125 9.28125 -10.171875 C 9.46875 -9.765625 9.570312 -9.363281 9.59375 -8.96875 L 7.96875 -8.96875 C 7.914062 -9.320312 7.78125 -9.65625 7.5625 -9.96875 C 7.351562 -10.28125 7.0625 -10.535156 6.6875 -10.734375 C 6.320312 -10.941406 5.859375 -11.046875 5.296875 -11.046875 C 4.890625 -11.046875 4.5 -10.96875 4.125 -10.8125 C 3.757812 -10.664062 3.460938 -10.445312 3.234375 -10.15625 C 3.003906 -9.863281 2.890625 -9.515625 2.890625 -9.109375 C 2.890625 -8.660156 3.015625 -8.304688 3.265625 -8.046875 C 3.515625 -7.785156 3.84375 -7.578125 4.25 -7.421875 C 4.65625 -7.265625 5.101562 -7.128906 5.59375 -7.015625 C 6.082031 -6.898438 6.570312 -6.765625 7.0625 -6.609375 C 7.550781 -6.453125 8 -6.25 8.40625 -6 C 8.8125 -5.75 9.140625 -5.414062 9.390625 -5 C 9.648438 -4.59375 9.78125 -4.0625 9.78125 -3.40625 C 9.78125 -2.613281 9.585938 -1.945312 9.203125 -1.40625 C 8.828125 -0.863281 8.316406 -0.457031 7.671875 -0.1875 C 7.023438 0.0703125 6.289062 0.203125 5.46875 0.203125 Z M 5.46875 0.203125 "/></g></g></g></g><g clip-path="url(#08d1d349d9)"><g fill="#ffffff" fill-opacity="1"><g transform="translate(104.503872, 12.158859)"><g><path d="M 4.171875 0 L 4.171875 -10.84375 L 0.875 -10.84375 L 0.875 -12.234375 L 9.015625 -12.234375 L 9.015625 -10.84375 L 5.71875 -10.84375 L 5.71875 0 Z M 4.171875 0 "/></g></g></g></g><g clip-path="url(#646da569d0)"><g fill="#ffffff" fill-opacity="1"><g transform="translate(114.327628, 12.158859)"><g><path d="M 7.59375 -2.875 L 11.375 -12.234375 L 13.515625 -12.234375 L 13.515625 0 L 11.984375 0 L 11.984375 -9.828125 L 8.46875 -1.078125 L 6.796875 -1.078125 L 3.203125 -9.828125 L 3.203125 0 L 1.65625 0 L 1.65625 -12.234375 L 3.796875 -12.234375 Z M 7.59375 -2.875 "/></g></g></g></g><g clip-path="url(#94fe978fea)"><g fill="#ffffff" fill-opacity="1"><g transform="translate(129.500262, 12.158859)"><g><path d="M 0.140625 0 L 4.421875 -12.234375 L 5.921875 -12.234375 L 1.8125 0 Z M 2.34375 -3.40625 L 2.34375 -4.8125 L 7.953125 -4.8125 L 7.953125 -3.40625 Z M 8.65625 0 L 4.53125 -12.234375 L 5.921875 -12.234375 L 10.1875 0 Z M 8.65625 0 "/></g></g></g></g><g clip-path="url(#b711cfc9c6)"><g fill="#ffffff" fill-opacity="1"><g transform="translate(139.481211, 12.158859)"><g><path d="M 6.296875 0.234375 C 5.390625 0.234375 4.609375 0.0507812 3.953125 -0.3125 C 3.296875 -0.675781 2.757812 -1.164062 2.34375 -1.78125 C 1.925781 -2.394531 1.617188 -3.082031 1.421875 -3.84375 C 1.222656 -4.613281 1.125 -5.398438 1.125 -6.203125 C 1.125 -7.046875 1.222656 -7.84375 1.421875 -8.59375 C 1.628906 -9.351562 1.941406 -10.019531 2.359375 -10.59375 C 2.773438 -11.175781 3.3125 -11.632812 3.96875 -11.96875 C 4.625 -12.300781 5.398438 -12.46875 6.296875 -12.46875 C 7.148438 -12.46875 7.90625 -12.304688 8.5625 -11.984375 C 9.226562 -11.671875 9.78125 -11.238281 10.21875 -10.6875 C 10.65625 -10.132812 10.957031 -9.5 11.125 -8.78125 L 9.5625 -8.46875 C 9.4375 -8.96875 9.210938 -9.410156 8.890625 -9.796875 C 8.578125 -10.191406 8.195312 -10.5 7.75 -10.71875 C 7.3125 -10.945312 6.828125 -11.0625 6.296875 -11.0625 C 5.535156 -11.0625 4.882812 -10.847656 4.34375 -10.421875 C 3.800781 -10.003906 3.390625 -9.429688 3.109375 -8.703125 C 2.828125 -7.972656 2.6875 -7.148438 2.6875 -6.234375 C 2.6875 -5.296875 2.828125 -4.441406 3.109375 -3.671875 C 3.390625 -2.898438 3.800781 -2.289062 4.34375 -1.84375 C 4.882812 -1.394531 5.535156 -1.171875 6.296875 -1.171875 C 6.828125 -1.171875 7.3125 -1.285156 7.75 -1.515625 C 8.195312 -1.742188 8.578125 -2.050781 8.890625 -2.4375 C 9.210938 -2.832031 9.4375 -3.28125 9.5625 -3.78125 L 11.125 -3.46875 C 10.957031 -2.75 10.65625 -2.109375 10.21875 -1.546875 C 9.78125 -0.992188 9.226562 -0.554688 8.5625 -0.234375 C 7.90625 0.078125 7.148438 0.234375 6.296875 0.234375 Z M 6.296875 0.234375 "/></g></g></g></g><g fill="#ffffff" fill-opacity="1"><g transform="translate(86.201071, 51.619228)"><g><path d="M 0.09375 -30.34375 L 6.9375 -30.34375 L 17.21875 0 L 10.703125 0 Z M 22.0625 -30.34375 L 28.65625 -30.34375 L 18.078125 0 L 12.09375 0 Z M 22.0625 -30.34375 "/></g></g></g><g fill="#ffffff" fill-opacity="1"><g transform="translate(114.948467, 51.619228)"><g><path d="M 5.8125 -24.234375 C 4.820312 -24.234375 3.96875 -24.601562 3.25 -25.34375 C 2.53125 -26.082031 2.171875 -26.941406 2.171875 -27.921875 C 2.171875 -28.929688 2.53125 -29.796875 3.25 -30.515625 C 3.96875 -31.242188 4.820312 -31.609375 5.8125 -31.609375 C 6.851562 -31.609375 7.71875 -31.242188 8.40625 -30.515625 C 9.101562 -29.796875 9.453125 -28.929688 9.453125 -27.921875 C 9.453125 -26.941406 9.101562 -26.082031 8.40625 -25.34375 C 7.71875 -24.601562 6.851562 -24.234375 5.8125 -24.234375 Z M 2.78125 0 L 2.78125 -22.03125 L 8.84375 -22.03125 L 8.84375 0 Z M 2.78125 0 "/></g></g></g><g clip-path="url(#a607c7f2ba)"><g fill="#ffffff" fill-opacity="1"><g transform="translate(126.568831, 51.619228)"><g><path d="M 11.921875 0.515625 C 9.640625 0.515625 7.734375 0.132812 6.203125 -0.625 C 4.671875 -1.394531 3.515625 -2.398438 2.734375 -3.640625 C 1.953125 -4.878906 1.5625 -6.207031 1.5625 -7.625 L 7.453125 -7.59375 C 7.453125 -6.894531 7.65625 -6.304688 8.0625 -5.828125 C 8.46875 -5.347656 9.023438 -4.992188 9.734375 -4.765625 C 10.441406 -4.535156 11.273438 -4.421875 12.234375 -4.421875 C 13.472656 -4.421875 14.453125 -4.59375 15.171875 -4.9375 C 15.898438 -5.289062 16.265625 -5.882812 16.265625 -6.71875 C 16.265625 -7.207031 15.929688 -7.570312 15.265625 -7.8125 C 14.597656 -8.0625 13.734375 -8.257812 12.671875 -8.40625 C 11.617188 -8.550781 10.507812 -8.734375 9.34375 -8.953125 C 8.175781 -9.171875 7.0625 -9.507812 6 -9.96875 C 4.945312 -10.4375 4.085938 -11.101562 3.421875 -11.96875 C 2.753906 -12.832031 2.421875 -13.972656 2.421875 -15.390625 C 2.421875 -16.722656 2.734375 -17.929688 3.359375 -19.015625 C 3.984375 -20.097656 4.988281 -20.957031 6.375 -21.59375 C 7.757812 -22.226562 9.566406 -22.546875 11.796875 -22.546875 C 13.671875 -22.546875 15.238281 -22.3125 16.5 -21.84375 C 17.757812 -21.382812 18.769531 -20.785156 19.53125 -20.046875 C 20.300781 -19.316406 20.847656 -18.523438 21.171875 -17.671875 C 21.503906 -16.816406 21.671875 -16 21.671875 -15.21875 L 15.78125 -15.21875 C 15.78125 -15.851562 15.414062 -16.410156 14.6875 -16.890625 C 13.96875 -17.367188 12.988281 -17.609375 11.75 -17.609375 C 10.5625 -17.609375 9.710938 -17.429688 9.203125 -17.078125 C 8.703125 -16.734375 8.453125 -16.257812 8.453125 -15.65625 C 8.453125 -15.1875 8.703125 -14.820312 9.203125 -14.5625 C 9.710938 -14.300781 10.375 -14.09375 11.1875 -13.9375 C 12 -13.78125 12.898438 -13.613281 13.890625 -13.4375 C 14.890625 -13.269531 15.878906 -13.046875 16.859375 -12.765625 C 17.847656 -12.492188 18.742188 -12.132812 19.546875 -11.6875 C 20.359375 -11.238281 21.015625 -10.640625 21.515625 -9.890625 C 22.023438 -9.140625 22.28125 -8.1875 22.28125 -7.03125 C 22.28125 -5.46875 21.882812 -4.117188 21.09375 -2.984375 C 20.300781 -1.859375 19.128906 -0.992188 17.578125 -0.390625 C 16.035156 0.210938 14.148438 0.515625 11.921875 0.515625 Z M 11.921875 0.515625 "/></g></g></g></g><g fill="#ffffff" fill-opacity="1"><g transform="translate(150.590039, 51.619228)"><g><path d="M 5.8125 -24.234375 C 4.820312 -24.234375 3.96875 -24.601562 3.25 -25.34375 C 2.53125 -26.082031 2.171875 -26.941406 2.171875 -27.921875 C 2.171875 -28.929688 2.53125 -29.796875 3.25 -30.515625 C 3.96875 -31.242188 4.820312 -31.609375 5.8125 -31.609375 C 6.851562 -31.609375 7.71875 -31.242188 8.40625 -30.515625 C 9.101562 -29.796875 9.453125 -28.929688 9.453125 -27.921875 C 9.453125 -26.941406 9.101562 -26.082031 8.40625 -25.34375 C 7.71875 -24.601562 6.851562 -24.234375 5.8125 -24.234375 Z M 2.78125 0 L 2.78125 -22.03125 L 8.84375 -22.03125 L 8.84375 0 Z M 2.78125 0 "/></g></g></g><g clip-path="url(#6da6bfd2ae)"><g fill="#ffffff" fill-opacity="1"><g transform="translate(162.210403, 51.619228)"><g><path d="M 13.046875 0.515625 C 10.210938 0.515625 8.148438 -0.0664062 6.859375 -1.234375 C 5.578125 -2.398438 4.9375 -4.140625 4.9375 -6.453125 L 4.9375 -16.78125 L 0.78125 -16.78125 L 0.78125 -22.03125 L 1.609375 -22.03125 C 2.523438 -22.03125 3.242188 -22.128906 3.765625 -22.328125 C 4.285156 -22.535156 4.65625 -22.875 4.875 -23.34375 C 5.09375 -23.820312 5.203125 -24.453125 5.203125 -25.234375 L 5.203125 -27.1875 L 11.015625 -27.1875 L 11.015625 -21.984375 L 16.046875 -21.984375 L 16.046875 -16.78125 L 11.015625 -16.78125 L 11.015625 -7.984375 C 11.015625 -6.960938 11.273438 -6.257812 11.796875 -5.875 C 12.316406 -5.488281 12.863281 -5.296875 13.4375 -5.296875 C 13.726562 -5.296875 14.085938 -5.304688 14.515625 -5.328125 C 14.953125 -5.359375 15.347656 -5.40625 15.703125 -5.46875 L 15.734375 0.171875 C 15.359375 0.285156 14.90625 0.367188 14.375 0.421875 C 13.84375 0.484375 13.398438 0.515625 13.046875 0.515625 Z M 13.046875 0.515625 "/></g></g></g></g><g clip-path="url(#6197df4efe)"><g fill="#ffffff" fill-opacity="1"><g transform="translate(179.554234, 51.619228)"><g><path d="M 13.140625 0.515625 C 11.140625 0.515625 9.257812 0.113281 7.5 -0.6875 C 5.738281 -1.5 4.304688 -2.757812 3.203125 -4.46875 C 2.109375 -6.175781 1.5625 -8.359375 1.5625 -11.015625 C 1.5625 -13.035156 1.894531 -14.769531 2.5625 -16.21875 C 3.226562 -17.664062 4.125 -18.859375 5.25 -19.796875 C 6.375 -20.734375 7.625 -21.425781 9 -21.875 C 10.375 -22.320312 11.753906 -22.546875 13.140625 -22.546875 C 15.128906 -22.546875 17 -22.140625 18.75 -21.328125 C 20.5 -20.523438 21.914062 -19.273438 23 -17.578125 C 24.082031 -15.890625 24.625 -13.703125 24.625 -11.015625 C 24.625 -9.015625 24.296875 -7.289062 23.640625 -5.84375 C 22.992188 -4.40625 22.117188 -3.207031 21.015625 -2.25 C 19.921875 -1.300781 18.6875 -0.601562 17.3125 -0.15625 C 15.945312 0.289062 14.554688 0.515625 13.140625 0.515625 Z M 13.140625 -4.6875 C 14.898438 -4.6875 16.195312 -5.253906 17.03125 -6.390625 C 17.875 -7.535156 18.296875 -9.078125 18.296875 -11.015625 C 18.296875 -12.921875 17.882812 -14.453125 17.0625 -15.609375 C 16.238281 -16.765625 14.929688 -17.34375 13.140625 -17.34375 C 11.460938 -17.34375 10.164062 -16.765625 9.25 -15.609375 C 8.34375 -14.453125 7.890625 -12.921875 7.890625 -11.015625 C 7.890625 -9.078125 8.34375 -7.535156 9.25 -6.390625 C 10.164062 -5.253906 11.460938 -4.6875 13.140625 -4.6875 Z M 13.140625 -4.6875 "/></g></g></g></g><g fill="#ffffff" fill-opacity="1"><g transform="translate(204.876211, 51.619228)"><g><path d="M 3.46875 0 L 3.46875 -22.03125 L 9.53125 -22.03125 L 9.53125 -18.390625 C 9.769531 -18.960938 10.066406 -19.5 10.421875 -20 C 10.785156 -20.507812 11.226562 -20.953125 11.75 -21.328125 C 12.269531 -21.703125 12.847656 -22 13.484375 -22.21875 C 14.117188 -22.4375 14.796875 -22.546875 15.515625 -22.546875 C 15.753906 -22.546875 16.070312 -22.53125 16.46875 -22.5 C 16.875 -22.46875 17.179688 -22.425781 17.390625 -22.375 L 17.390625 -16.6875 C 16.953125 -16.832031 16.398438 -16.941406 15.734375 -17.015625 C 15.066406 -17.085938 14.460938 -17.066406 13.921875 -16.953125 C 12.796875 -16.722656 11.910156 -16.289062 11.265625 -15.65625 C 10.628906 -15.019531 10.179688 -14.191406 9.921875 -13.171875 C 9.660156 -12.160156 9.53125 -10.960938 9.53125 -9.578125 L 9.53125 0 Z M 3.46875 0 "/></g></g></g><g fill="#ffffff" fill-opacity="1"><g transform="translate(223.043879, 51.619228)"><g><path d="M 3.90625 0 L 3.90625 -30.34375 L 14.65625 -30.34375 C 17.976562 -30.34375 20.71875 -29.707031 22.875 -28.4375 C 25.03125 -27.164062 26.632812 -25.394531 27.6875 -23.125 C 28.738281 -20.863281 29.265625 -18.195312 29.265625 -15.125 C 29.265625 -12.125 28.738281 -9.488281 27.6875 -7.21875 C 26.632812 -4.945312 25.03125 -3.175781 22.875 -1.90625 C 20.71875 -0.632812 17.976562 0 14.65625 0 Z M 10.234375 -5.46875 L 14.78125 -5.46875 C 16.488281 -5.46875 17.921875 -5.796875 19.078125 -6.453125 C 20.234375 -7.117188 21.109375 -8.164062 21.703125 -9.59375 C 22.296875 -11.03125 22.59375 -12.890625 22.59375 -15.171875 C 22.59375 -17.453125 22.296875 -19.300781 21.703125 -20.71875 C 21.109375 -22.132812 20.234375 -23.179688 19.078125 -23.859375 C 17.921875 -24.546875 16.488281 -24.890625 14.78125 -24.890625 L 10.234375 -24.890625 Z M 10.234375 -5.46875 "/></g></g></g><g clip-path="url(#bff6a0d9f7)"><g fill="#ffffff" fill-opacity="1"><g transform="translate(254.392858, 51.619228)"><g><path d="M 13.046875 0.5625 C 11.109375 0.5625 9.265625 0.113281 7.515625 -0.78125 C 5.773438 -1.675781 4.359375 -2.988281 3.265625 -4.71875 C 2.179688 -6.457031 1.640625 -8.582031 1.640625 -11.09375 C 1.640625 -13.0625 1.957031 -14.757812 2.59375 -16.1875 C 3.238281 -17.625 4.101562 -18.8125 5.1875 -19.75 C 6.269531 -20.6875 7.484375 -21.382812 8.828125 -21.84375 C 10.171875 -22.3125 11.550781 -22.546875 12.96875 -22.546875 C 15.132812 -22.546875 17.019531 -22.078125 18.625 -21.140625 C 20.226562 -20.203125 21.46875 -18.847656 22.34375 -17.078125 C 23.226562 -15.316406 23.671875 -13.207031 23.671875 -10.75 L 23.671875 -9.328125 L 6.203125 -9.328125 L 6.15625 -13.046875 L 17.46875 -13.046875 C 17.46875 -13.421875 17.363281 -13.851562 17.15625 -14.34375 C 16.957031 -14.84375 16.664062 -15.316406 16.28125 -15.765625 C 15.894531 -16.210938 15.414062 -16.585938 14.84375 -16.890625 C 14.28125 -17.191406 13.640625 -17.34375 12.921875 -17.34375 C 11.703125 -17.34375 10.703125 -17.066406 9.921875 -16.515625 C 9.148438 -15.972656 8.566406 -15.226562 8.171875 -14.28125 C 7.785156 -13.34375 7.59375 -12.28125 7.59375 -11.09375 C 7.59375 -9.769531 7.785156 -8.625 8.171875 -7.65625 C 8.566406 -6.6875 9.175781 -5.941406 10 -5.421875 C 10.820312 -4.898438 11.867188 -4.640625 13.140625 -4.640625 C 13.566406 -4.640625 14.054688 -4.75 14.609375 -4.96875 C 15.160156 -5.1875 15.679688 -5.507812 16.171875 -5.9375 C 16.660156 -6.375 17.035156 -6.894531 17.296875 -7.5 L 23.03125 -5.8125 C 22.363281 -4.21875 21.488281 -2.953125 20.40625 -2.015625 C 19.320312 -1.078125 18.140625 -0.410156 16.859375 -0.015625 C 15.585938 0.367188 14.316406 0.5625 13.046875 0.5625 Z M 13.046875 0.5625 "/></g></g></g></g><g clip-path="url(#8a0dbed836)"><g fill="#ffffff" fill-opacity="1"><g transform="translate(279.584763, 51.619228)"><g><path d="M 11.921875 0.515625 C 9.640625 0.515625 7.734375 0.132812 6.203125 -0.625 C 4.671875 -1.394531 3.515625 -2.398438 2.734375 -3.640625 C 1.953125 -4.878906 1.5625 -6.207031 1.5625 -7.625 L 7.453125 -7.59375 C 7.453125 -6.894531 7.65625 -6.304688 8.0625 -5.828125 C 8.46875 -5.347656 9.023438 -4.992188 9.734375 -4.765625 C 10.441406 -4.535156 11.273438 -4.421875 12.234375 -4.421875 C 13.472656 -4.421875 14.453125 -4.59375 15.171875 -4.9375 C 15.898438 -5.289062 16.265625 -5.882812 16.265625 -6.71875 C 16.265625 -7.207031 15.929688 -7.570312 15.265625 -7.8125 C 14.597656 -8.0625 13.734375 -8.257812 12.671875 -8.40625 C 11.617188 -8.550781 10.507812 -8.734375 9.34375 -8.953125 C 8.175781 -9.171875 7.0625 -9.507812 6 -9.96875 C 4.945312 -10.4375 4.085938 -11.101562 3.421875 -11.96875 C 2.753906 -12.832031 2.421875 -13.972656 2.421875 -15.390625 C 2.421875 -16.722656 2.734375 -17.929688 3.359375 -19.015625 C 3.984375 -20.097656 4.988281 -20.957031 6.375 -21.59375 C 7.757812 -22.226562 9.566406 -22.546875 11.796875 -22.546875 C 13.671875 -22.546875 15.238281 -22.3125 16.5 -21.84375 C 17.757812 -21.382812 18.769531 -20.785156 19.53125 -20.046875 C 20.300781 -19.316406 20.847656 -18.523438 21.171875 -17.671875 C 21.503906 -16.816406 21.671875 -16 21.671875 -15.21875 L 15.78125 -15.21875 C 15.78125 -15.851562 15.414062 -16.410156 14.6875 -16.890625 C 13.96875 -17.367188 12.988281 -17.609375 11.75 -17.609375 C 10.5625 -17.609375 9.710938 -17.429688 9.203125 -17.078125 C 8.703125 -16.734375 8.453125 -16.257812 8.453125 -15.65625 C 8.453125 -15.1875 8.703125 -14.820312 9.203125 -14.5625 C 9.710938 -14.300781 10.375 -14.09375 11.1875 -13.9375 C 12 -13.78125 12.898438 -13.613281 13.890625 -13.4375 C 14.890625 -13.269531 15.878906 -13.046875 16.859375 -12.765625 C 17.847656 -12.492188 18.742188 -12.132812 19.546875 -11.6875 C 20.359375 -11.238281 21.015625 -10.640625 21.515625 -9.890625 C 22.023438 -9.140625 22.28125 -8.1875 22.28125 -7.03125 C 22.28125 -5.46875 21.882812 -4.117188 21.09375 -2.984375 C 20.300781 -1.859375 19.128906 -0.992188 17.578125 -0.390625 C 16.035156 0.210938 14.148438 0.515625 11.921875 0.515625 Z M 11.921875 0.515625 "/></g></g></g></g><g clip-path="url(#98995e4b78)"><g fill="#ffffff" fill-opacity="1"><g transform="translate(303.60597, 51.619228)"><g><path d="M 7.671875 -5.03125 L 4.421875 -9.109375 L 17 -22.03125 L 24.71875 -22.03125 L 14.53125 -10.890625 L 13.484375 -10.453125 Z M 3.46875 0.046875 L 3.46875 -30.828125 L 9.53125 -30.875 L 9.53125 0 Z M 18.203125 0 L 10.625 -12.140625 L 15.90625 -15.21875 L 25.5 0 Z M 18.203125 0 "/></g></g></g></g></g></g></g></svg>